<svg xmlns="http://www.w3.org/2000/svg" width="900" height="560">
<rect width="100%" height="100%" fill="#fffaf5"/>
<text x="450.0" y="32" text-anchor="middle" font-size="24" fill="#1f2937">SSSP Runtime Comparison</text>
<line x1="80" y1="70" x2="80" y2="490" stroke="#374151" stroke-width="2"/>
<line x1="80" y1="490" x2="860" y2="490" stroke="#374151" stroke-width="2"/>
<text x="450.0" y="540" text-anchor="middle" font-size="16" fill="#374151">Number of vertices</text>
<text x="24" y="280.0" text-anchor="middle" font-size="16" fill="#374151" transform="rotate(-90 24 280.0)">Runtime (ms)</text>
<line x1="80" y1="490.0" x2="860" y2="490.0" stroke="#e5e7eb" stroke-width="1"/>
<text x="68" y="495.0" text-anchor="end" font-size="12" fill="#4b5563">0.00</text>
<line x1="80" y1="406.0" x2="860" y2="406.0" stroke="#e5e7eb" stroke-width="1"/>
<text x="68" y="411.0" text-anchor="end" font-size="12" fill="#4b5563">46.07</text>
<line x1="80" y1="322.0" x2="860" y2="322.0" stroke="#e5e7eb" stroke-width="1"/>
<text x="68" y="327.0" text-anchor="end" font-size="12" fill="#4b5563">92.13</text>
<line x1="80" y1="238.0" x2="860" y2="238.0" stroke="#e5e7eb" stroke-width="1"/>
<text x="68" y="243.0" text-anchor="end" font-size="12" fill="#4b5563">138.20</text>
<line x1="80" y1="154.0" x2="860" y2="154.0" stroke="#e5e7eb" stroke-width="1"/>
<text x="68" y="159.0" text-anchor="end" font-size="12" fill="#4b5563">184.27</text>
<line x1="80" y1="70.0" x2="860" y2="70.0" stroke="#e5e7eb" stroke-width="1"/>
<text x="68" y="75.0" text-anchor="end" font-size="12" fill="#4b5563">230.33</text>
<line x1="80.0" y1="490" x2="80.0" y2="496" stroke="#374151" stroke-width="1"/>
<text x="80.0" y="514" text-anchor="middle" font-size="12" fill="#4b5563">10000</text>
<line x1="202.66754735675025" y1="490" x2="202.66754735675025" y2="496" stroke="#374151" stroke-width="1"/>
<text x="202.66754735675025" y="514" text-anchor="middle" font-size="12" fill="#4b5563">50000</text>
<line x1="356.0019815526881" y1="490" x2="356.0019815526881" y2="496" stroke="#374151" stroke-width="1"/>
<text x="356.0019815526881" y="514" text-anchor="middle" font-size="12" fill="#4b5563">100000</text>
<line x1="662.6708499445638" y1="490" x2="662.6708499445638" y2="496" stroke="#374151" stroke-width="1"/>
<text x="662.6708499445638" y="514" text-anchor="middle" font-size="12" fill="#4b5563">200000</text>
<line x1="860.0" y1="490" x2="860.0" y2="496" stroke="#374151" stroke-width="1"/>
<text x="860.0" y="514" text-anchor="middle" font-size="12" fill="#4b5563">264346</text>
<rect x="80" y="42" width="18" height="18" fill="#0f766e" rx="3"/>
<text x="106" y="56" font-size="14" fill="#374151">Dijkstra</text>
<polyline points="80.0,489.7817963479122 202.66754735675025,486.1186642006825 356.0019815526881,484.7614785485425 662.6708499445638,473.14436687592803 860.0,459.03399411289695" fill="none" stroke="#0f766e" stroke-width="3"/>
<circle cx="80.0" cy="489.7817963479122" r="4.5" fill="#0f766e"/>
<circle cx="202.66754735675025" cy="486.1186642006825" r="4.5" fill="#0f766e"/>
<circle cx="356.0019815526881" cy="484.7614785485425" r="4.5" fill="#0f766e"/>
<circle cx="662.6708499445638" cy="473.14436687592803" r="4.5" fill="#0f766e"/>
<circle cx="860.0" cy="459.03399411289695" r="4.5" fill="#0f766e"/>
<rect x="240" y="42" width="18" height="18" fill="#b45309" rx="3"/>
<text x="266" y="56" font-size="14" fill="#374151">Bellman-Ford</text>
<polyline points="80.0,487.9936153585663 202.66754735675025,439.17601396233295 356.0019815526881,385.16100966422675 662.6708499445638,212.31576753757588 860.0,70.0" fill="none" stroke="#b45309" stroke-width="3"/>
<circle cx="80.0" cy="487.9936153585663" r="4.5" fill="#b45309"/>
<circle cx="202.66754735675025" cy="439.17601396233295" r="4.5" fill="#b45309"/>
<circle cx="356.0019815526881" cy="385.16100966422675" r="4.5" fill="#b45309"/>
<circle cx="662.6708499445638" cy="212.31576753757588" r="4.5" fill="#b45309"/>
<circle cx="860.0" cy="70.0" r="4.5" fill="#b45309"/>
</svg>